<svg xmlns="http://www.w3.org/2000/svg" data-name="Layer 1" viewBox="0 0 512 512"><path fill="#fff" d="M407,504.5H105a30,30,0,0,1-29.9-32.42l26.26-324.79a15,15,0,0,1,15-13.79H395.66a15,15,0,0,1,15,13.79l26.26,324.79A30,30,0,0,1,407,504.5Z"/><path fill="#f6b2bb" d="M436.88,472.08,410.62,147.29a15,15,0,0,0-15-13.79H366.93l24.95,308.58A30,30,0,0,1,362,474.5H75a30,30,0,0,0,30,30H407A30,30,0,0,0,436.88,472.08Z"/><circle cx="162.43" cy="220.61" r="19.5" fill="#fff"/><circle cx="349.57" cy="220.61" r="19.5" fill="#fff"/><path fill="#f6b2bb" d="M358.35 203.22a19.47 19.47 0 0 1-26.77 24.91 19.5 19.5 0 1 0 26.77-24.91zM171.21 203.22a19.52 19.52 0 0 1-18 27 19.34 19.34 0 0 1-8.78-2.11 19.5 19.5 0 1 0 26.78-24.91z"/><rect width="35.85" height="48.35" x="245.58" y="397.18" fill="#fff"/><polygon fill="#f6b2bb" points="245.58 402.58 245.58 397.18 281.42 397.18 281.42 439.38 245.58 402.58"/><path fill="#fff" d="M187.37,387.27l73.42-93.88a3.44,3.44,0,0,1,5.42,0l73.42,93.88a3.44,3.44,0,0,1-1.82,5.44,284.69,284.69,0,0,1-148.64,0A3.44,3.44,0,0,1,187.37,387.27Z"/><path fill="#f6b2bb" d="M339.63,387.27l-73.42-93.88a3.44,3.44,0,0,0-5.42,0l-8.08,10.34,53.93,69a8.33,8.33,0,0,1-4.59,13.23,284.17,284.17,0,0,1-115.39,3.81,3.42,3.42,0,0,0,2.51,3,284.73,284.73,0,0,0,148.65,0A3.44,3.44,0,0,0,339.63,387.27Z"/><path fill="#fff" d="M198.84,341.24,261.2,261.5a2.93,2.93,0,0,1,4.6,0l62.36,79.74a2.92,2.92,0,0,1-1.55,4.62,241.9,241.9,0,0,1-126.25,0A2.92,2.92,0,0,1,198.84,341.24Z"/><path fill="#f6b2bb" d="M328.16,341.24,265.8,261.5a2.93,2.93,0,0,0-4.6,0L253,272l41.87,53.54a9,9,0,0,1-5.09,14.24,241.68,241.68,0,0,1-91.55,3.11,2.89,2.89,0,0,0,2.12,3,241.9,241.9,0,0,0,126.25,0A2.92,2.92,0,0,0,328.16,341.24Z"/><path fill="#fff" d="M213.5,294.86l48.22-61.65a2.26,2.26,0,0,1,3.56,0l48.21,61.65a2.26,2.26,0,0,1-1.19,3.57,187,187,0,0,1-97.61,0A2.26,2.26,0,0,1,213.5,294.86Z"/><path fill="#f6b2bb" d="M313.49,294.86l-48.21-61.65a2.26,2.26,0,0,0-3.56,0l-8.19,10.47,26.54,33.94a9.57,9.57,0,0,1-5.57,15.27,187.47,187.47,0,0,1-61.17,2.26,2.24,2.24,0,0,0,1.36,3.28,186.89,186.89,0,0,0,97.62,0A2.25,2.25,0,0,0,313.49,294.86Z"/><circle cx="263.5" cy="230.74" r="20" fill="#fff"/><path fill="#f6b2bb" d="M269.52,211.67A20,20,0,0,1,253,243a20.06,20.06,0,0,1-6-.93,20,20,0,1,0,22.52-30.37Z"/><path fill="#fff" d="M105,504.5H407a30,30,0,0,0,29.9-32.42l-2.23-27.58H77.35l-2.23,27.58A30,30,0,0,0,105,504.5Z"/><path fill="#f6b2bb" d="M436.88,472.08l-2.23-27.58H392a30,30,0,0,1-30,30H75a29.87,29.87,0,0,0,7.66,20l.09.11c.27.29.55.58.83.86l.2.21c.25.26.52.51.78.76l.29.27.77.66.36.31c.24.2.49.4.75.59l.42.33.74.52c.16.11.32.23.49.33l.72.47q.27.18.54.33t.72.42L91,501l.72.37.63.3L93,502l.68.28.71.28.72.26.7.24.76.23.7.2.8.19.68.16.85.16.67.12.92.12.63.08,1,.09.52,0c.53,0,1.06,0,1.59,0H407A30,30,0,0,0,436.88,472.08Z"/><path fill="#e53950" d="M444.35,471.47,418.09,146.68A22.62,22.62,0,0,0,395.66,126H357.07V101.07a101.08,101.08,0,0,0-202.15,0V126H116.33a22.61,22.61,0,0,0-22.42,20.68l-2.12,26.16a7.5,7.5,0,0,0,14.95,1.21l2.12-26.16a7.54,7.54,0,0,1,7.47-6.89h38.59v53.68a27,27,0,1,0,15,0V141H342.07v53.68a27,27,0,1,0,15,0V141h38.59a7.54,7.54,0,0,1,7.48,6.89L426.52,437H370.36a7.5,7.5,0,0,0,0,15h57.37l1.67,20.68A22.51,22.51,0,0,1,407,497H105a22.51,22.51,0,0,1-22.43-24.32L84.27,452H340.36a7.5,7.5,0,0,0,0-15H288.92V407.93a291.68,291.68,0,0,0,50.84-9,10.93,10.93,0,0,0,5.77-17.29l-22.08-28.24q2.57-.63,5.12-1.32a10.41,10.41,0,0,0,5.5-16.48l-23.48-30c1.22-.31,2.45-.6,3.66-.93a9.76,9.76,0,0,0,5.15-15.43L285.62,246a27.5,27.5,0,1,0-44.25,0L207.6,289.2a9.75,9.75,0,0,0,5.13,15.43c1.22.33,2.45.62,3.68.93l-23.48,30a10.42,10.42,0,0,0,5.48,16.48c1.7.46,3.42.9,5.13,1.32l-22.08,28.24a10.93,10.93,0,0,0,5.75,17.29,292.34,292.34,0,0,0,50.87,9V437H85.48l18.67-230.82a7.5,7.5,0,0,0-15-1.21L67.64,471.47A37.52,37.52,0,0,0,105,512H407a37.5,37.5,0,0,0,37.38-40.53ZM174.42,220.61a12,12,0,1,1-12-12A12,12,0,0,1,174.42,220.61ZM169.92,126V101.07a86.08,86.08,0,0,1,172.15,0V126Zm191.65,94.61a12,12,0,1,1-12-12A12,12,0,0,1,361.57,220.61ZM273.92,437H253.08V408.85c3.47.12,6.94.19,10.42.19h1.06q4.68,0,9.36-.19ZM263.5,217.2A12.5,12.5,0,1,1,251,229.7,12.52,12.52,0,0,1,263.5,217.2Zm-10.27,38a27.37,27.37,0,0,0,20.54,0l28.82,36.86a179.42,179.42,0,0,1-78.19,0Zm-20.41,53.72a194.46,194.46,0,0,0,30.67,2.45h.71a195.31,195.31,0,0,0,30-2.45l23.76,30.38a234.25,234.25,0,0,1-108.86,0ZM197.1,386l22.77-29.12a249.11,249.11,0,0,0,43.63,3.86h.9a249.6,249.6,0,0,0,42.72-3.86L329.9,386A277.19,277.19,0,0,1,264.5,394h-1A277.17,277.17,0,0,1,197.1,386Z"/></svg>