<svg xmlns="http://www.w3.org/2000/svg" data-name="Layer 1" viewBox="0 0 512 512"><rect width="251.08" height="437" x="136.956" y="67.711" fill="#e5eef9" rx="30"/><path fill="#eaf6ff" d="M388.04 168.5v55H351.88l-19.97 19.97a1.9916 1.9916 0 0 1-2.81994 0L309.12 223.5H300.5a6.00472 6.00472 0 0 1-6-6v-43a6.00472 6.00472 0 0 1 6-6zM217.5 279.5v43a6.00472 6.00472 0 0 1-6 6h-8.62l-19.97 19.97a1.9916 1.9916 0 0 1-2.81994 0L160.12 328.5H136.96v-55H211.5A6.00472 6.00472 0 0 1 217.5 279.5zM388.04 348.5v55H351.88l-19.97 19.97a1.9916 1.9916 0 0 1-2.81994 0L309.12 403.5H300.5a6.00472 6.00472 0 0 1-6-6v-43a6.00472 6.00472 0 0 1 6-6z"/><path fill="#fed402" d="M300.5,333.5h198a6,6,0,0,1,6,6v43a6,6,0,0,1-6,6H351.88477l-19.97056,19.97055a2,2,0,0,1-2.82842,0L309.11523,388.5H300.5a6,6,0,0,1-6-6v-43A6,6,0,0,1,300.5,333.5Z"/><rect width="124.759" height="34.395" x="104.008" y="66.607" fill="#f1f6f9" rx="6.879" transform="rotate(139.75 166.388 83.805)"/><path fill="#dde8ef" d="M220.6651,51.37549l-13.334-15.75095a6.87908,6.87908,0,0,0-9.695-.80569l-3.48761,2.95239,3.41812,7.43525a22.98615,22.98615,0,0,1-6.03311,27.145l-67.90662,57.48664,1.81738,2.14673a6.87918,6.87918,0,0,0,9.695.80567l84.72022-71.72022A6.87878,6.87878,0,0,0,220.6651,51.37549Z"/><path fill="#e53950" d="M112.91581,106.53886l84.72017-71.72c-5.7492-4.72856-42.455-33.90355-93.25851-25.95432C62.53382,15.41172,38.25931,42.8977,32.18611,50.2119c25.289-14.05126,55.13562-9.276,70.87418,9.18323C119.19065,78.31392,113.62655,103.54274,112.91581,106.53886Z"/><path fill="#ca2e43" d="M39.33478 42.39209c-3.34876 3.345-5.7428 6.12671-7.14868 7.81982a65.22712 65.22712 0 0 1 15.75128-6.24536A56.97878 56.97878 0 0 0 39.33478 42.39209zM197.636 34.81885c-5.65363-4.6499-41.2536-32.91406-90.74732-26.29395A124.21357 124.21357 0 0 1 151.812 24.01152a13.78761 13.78761 0 0 1 2.03235 22.48258q-20.29354 17.17947-40.587 34.35893a63.54114 63.54114 0 0 1-.34149 25.68579Q155.27591 70.67871 197.636 34.81885z"/><circle cx="32.609" cy="49.17" r="18.609" fill="#f1f6f9"/><path fill="#dde8ef" d="M46.8125,37.14673A18.61715,18.61715,0,0,0,25.34442,32.033a18.60557,18.60557,0,0,1,3.373,35.31616A18.59347,18.59347,0,0,0,46.8125,37.14673Z"/><path fill="#46cc8d" d="M211.5,258.5H13.5a6,6,0,0,0-6,6v43a6,6,0,0,0,6,6H160.11523l19.97056,19.97055a2,2,0,0,0,2.82842,0L202.88477,313.5H211.5a6,6,0,0,0,6-6v-43A6,6,0,0,0,211.5,258.5Z"/><path fill="#fed402" d="M300.5,153.5h198a6,6,0,0,1,6,6v43a6,6,0,0,1-6,6H351.88477l-19.97056,19.97055a2,2,0,0,1-2.82842,0L309.11523,208.5H300.5a6,6,0,0,1-6-6v-43A6,6,0,0,1,300.5,153.5Z"/><path fill="#282828" d="M388.04152,410.99609a7.49975,7.49975,0,0,0-7.5,7.5v56a22.52554,22.52554,0,0,1-22.5,22.5H166.95461a22.52554,22.52554,0,0,1-22.5-22.5v-153.5h12.55225l19.188,19.18848a7.5008,7.5008,0,0,0,10.60645,0l19.188-19.18848h5.50879a13.51507,13.51507,0,0,0,13.5-13.5v-43a13.51508,13.51508,0,0,0-13.5-13.5h-198a13.51508,13.51508,0,0,0-13.5,13.5v43a13.51507,13.51507,0,0,0,13.5,13.5H129.45461v153.5a37.54226,37.54226,0,0,0,37.5,37.5H358.04152a37.54225,37.54225,0,0,0,37.5-37.5v-56A7.49975,7.49975,0,0,0,388.04152,410.99609Zm-373.04345-105v-40h195v40h-7.11524a7.49987,7.49987,0,0,0-5.30322,2.19629l-16.08154,16.082-16.08155-16.082a7.49985,7.49985,0,0,0-5.30322-2.19629Zm159.45654,153.5a7.49974,7.49974,0,0,0,7.5,7.5H343.04152a7.5,7.5,0,0,0,0-15H181.95461A7.49975,7.49975,0,0,0,174.45461,459.49609Zm206.08691-236v102.5H300.49807a13.51508,13.51508,0,0,0-13.5,13.5v43a13.51507,13.51507,0,0,0,13.5,13.5h5.50879l19.188,19.18848a7.5008,7.5008,0,0,0,10.60645,0l19.188-19.18848H498.49807a13.51507,13.51507,0,0,0,13.5-13.5v-43a13.51508,13.51508,0,0,0-13.5-13.5H395.54152v-102.5a7.5,7.5,0,1,0-15,0Zm116.45655,117.5v40H351.88283a7.49987,7.49987,0,0,0-5.30322,2.19629l-16.08154,16.082-16.08155-16.082a7.49985,7.49985,0,0,0-5.30322-2.19629h-7.11523v-40Zm15-138.5v-43a13.51508,13.51508,0,0,0-13.5-13.5h-102.96v-48.5a37.54227,37.54227,0,0,0-37.5-37.5H229.15481a14.37156,14.37156,0,0,0-2.76758-13.4707l-13.334-15.751a14.37985,14.37985,0,0,0-14.37469-4.66406C184.71584,15.65527,149.49489-5.77979,103.21633,1.4502A124.55639,124.55639,0,0,0,45.8254,26.65527,26.10693,26.10693,0,1,0,30.44533,75.18555q1.10742.09228,2.20557.09179A26.11425,26.11425,0,0,0,58.627,51.32812c.04438-.53417.067-1.0664.07923-1.59814,15.28351-1.28174,29.68188,4.01465,38.64489,14.52686,11.88379,13.9375,9.756,32.59668,8.6399,38.72754a14.37,14.37,0,0,0,.39331,18.09082l13.333,15.75a14.2885,14.2885,0,0,0,9.7373,5.03515v86.63574a7.5,7.5,0,0,0,15,0v-93.7705l60.411-51.14161,11.41809,13.3125a37.44869,37.44869,0,0,0,28.46436,13.09961h35.5a37.44925,37.44925,0,0,0,28.46386-13.09863l18.77552-21.90137h30.55066a22.52555,22.52555,0,0,1,22.5,22.5v48.5h-80.04a13.51508,13.51508,0,0,0-13.5,13.5v43a13.51507,13.51507,0,0,0,13.5,13.5h5.50879l19.188,19.18848a7.5008,7.5008,0,0,0,10.60645,0l19.188-19.18848H498.49807A13.51507,13.51507,0,0,0,511.99807,202.49609ZM39.78567,57.64453a11.10775,11.10775,0,0,1-15.65674-1.30078h-.00049a11.10916,11.10916,0,1,1,15.65723,1.30078ZM63.16262,34.542q-1.426,0-2.85986.06055a108.67075,108.67075,0,0,1,45.23193-18.332c36.83935-5.76563,65.76855,9.18554,80.05615,18.91211L121.8257,89.16406c-.51611-10.48144-3.50732-23.43457-13.06054-34.63965C97.80422,41.669,81.106,34.542,63.16262,34.542Zm69.46564,90.541a7.59626,7.59626,0,0,0-1.01923.86328l-.84338.71387L118.2344,111.8584l83.77148-70.918,12.53174,14.80273Zm364.36981,75.91308H351.88283a7.49987,7.49987,0,0,0-5.30322,2.19629l-16.08154,16.082-16.08155-16.082a7.49985,7.49985,0,0,0-5.30322-2.19629h-7.11523v-40h195Z"/></svg>