<svg xmlns="http://www.w3.org/2000/svg" id="Layer_1" x="0" y="0" version="1.1" viewBox="0 0 32 32" xml:space="preserve"><path fill="#fff" d="M7.5 7.5H5a2.5 2.5 0 1 1 0-5A2.5 2.5 0 0 1 7.5 5v2.5z"/><path fill="#f7d2d2" d="M5 2.5c-.356 0-.693.077-1 .211A2.498 2.498 0 0 1 5.5 5v2.5h2V5A2.5 2.5 0 0 0 5 2.5z"/><path fill="#fff" d="M10 29.5a2.5 2.5 0 1 0 0-5h17a2.5 2.5 0 1 1 0 5H10z"/><path fill="#f7d2d2" d="M27 24.5h-3a2.5 2.5 0 1 1 0 5h3a2.5 2.5 0 1 0 0-5z"/><path fill="#fff" d="M12.5 27a2.5 2.5 0 1 1-5 0V5A2.5 2.5 0 0 0 5 2.5h19A2.5 2.5 0 0 1 26.5 5v19.5H10a2.5 2.5 0 0 1 2.5 2.5z"/><path fill="#f7d2d2" d="M24 2.5h-3A2.5 2.5 0 0 1 23.5 5v19.5h3V5A2.5 2.5 0 0 0 24 2.5z"/><path fill="#ef5054" d="M7.5 8H5C3.346 8 2 6.654 2 5s1.346-3 3-3 3 1.346 3 3v2.5a.5.5 0 01-.5.5zM5 3c-1.103 0-2 .897-2 2s.897 2 2 2h2V5c0-1.103-.897-2-2-2zM27 30H10a.5.5 0 010-1c1.103 0 2-.897 2-2s-.897-2-2-2a.5.5 0 010-1h17c1.654 0 3 1.346 3 3s-1.346 3-3 3zm-14.766-1H27c1.103 0 2-.897 2-2s-.897-2-2-2H12.234c.476.531.766 1.232.766 2s-.29 1.469-.766 2z"/><path fill="#ef5054" d="M10 30c-1.654 0-3-1.346-3-3V5c0-1.103-.897-2-2-2a.5.5 0 0 1 0-1h19c1.654 0 3 1.346 3 3v19.5a.5.5 0 0 1-.5.5H12.234c.476.531.766 1.232.766 2 0 1.654-1.346 3-3 3zM7.234 3C7.71 3.531 8 4.232 8 5v22c0 1.103.897 2 2 2s2-.897 2-2-.897-2-2-2a.5.5 0 0 1 0-1h16V5c0-1.103-.897-2-2-2H7.234z"/><path fill="#ef5054" d="M17 13a.5.5 0 0 1-.5-.5v-7a.5.5 0 0 1 1 0v7a.5.5 0 0 1-.5.5z"/><path fill="#ef5054" d="M20.031 11.25a.494.494 0 0 1-.25-.067l-6.063-3.5a.499.499 0 1 1 .501-.866l6.063 3.5a.5.5 0 0 1-.251.933z"/><path fill="#ef5054" d="M13.969 11.25a.5.5 0 0 1-.25-.933l6.063-3.5a.498.498 0 0 1 .682.183.498.498 0 0 1-.183.683l-6.063 3.5a.488.488 0 0 1-.249.067z"/><path fill="#ef5054" d="M20.031 11.25a.494.494 0 01-.25-.067l-6.063-3.5a.499.499 0 11.501-.866l6.063 3.5a.5.5 0 01-.251.933zM17 7.556a.502.502 0 01-.354-.146l-.648-.648a.5.5 0 01.707-.707l.295.294.295-.295a.5.5 0 01.707.707l-.648.648a.5.5 0 01-.354.147zM17.648 12.093a.502.502 0 01-.354-.146L17 11.651l-.295.295a.5.5 0 01-.707-.707l.648-.648a.5.5 0 01.707 0l.648.648a.5.5 0 01-.353.854z"/><path fill="#ef5054" d="M20.031 11.25a.494.494 0 0 1-.25-.067l-6.063-3.5a.499.499 0 1 1 .501-.866l6.063 3.5a.5.5 0 0 1-.251.933z"/><path fill="#ef5054" d="M14.431 8.765a.5.5 0 01-.129-.983l.403-.107-.108-.401a.501.501 0 01.967-.259l.236.882a.5.5 0 01-.355.613l-.885.238a.52.52 0 01-.129.017zM18.921 11.357a.5.5 0 01-.483-.37l-.238-.884a.5.5 0 01.355-.613l.886-.237a.506.506 0 01.612.354.5.5 0 01-.354.613l-.403.107.108.401a.501.501 0 01-.483.629zM13.969 11.25a.5.5 0 01-.25-.933l6.063-3.5a.498.498 0 01.682.183.498.498 0 01-.183.683l-6.063 3.5a.488.488 0 01-.249.067z"/><path fill="#ef5054" d="M19.569 8.765a.52.52 0 01-.129-.017l-.886-.237a.5.5 0 01-.355-.613l.237-.885a.507.507 0 01.613-.354.502.502 0 01.354.613l-.108.401.403.107a.501.501 0 01-.129.985zM15.079 11.357a.502.502 0 01-.484-.63l.108-.401-.403-.107a.501.501 0 01-.354-.613.51.51 0 01.612-.354l.886.237a.5.5 0 01.355.613l-.237.885a.5.5 0 01-.483.37z"/><g><path fill="#ef5054" d="M21.5 15h-9a.5.5 0 0 1 0-1h9a.5.5 0 0 1 0 1z"/></g><g><path fill="#ef5054" d="M23.5 17h-13a.5.5 0 0 1 0-1h13a.5.5 0 0 1 0 1z"/></g><g><path fill="#ef5054" d="M23.5 21h-13a.5.5 0 0 1 0-1h13a.5.5 0 0 1 0 1z"/></g><g><path fill="#ef5054" d="M23.5 19h-13a.5.5 0 0 1 0-1h13a.5.5 0 0 1 0 1z"/></g><g><path fill="#ef5054" d="M23.5 23h-13a.5.5 0 0 1 0-1h13a.5.5 0 0 1 0 1z"/></g></svg>