<svg xmlns="http://www.w3.org/2000/svg" data-name="Layer 1" viewBox="0 0 512 512"><path fill="#e53950" d="M274.63,52.22a17.6288,17.6288,0,0,1-17.27-4.66,19.04366,19.04366,0,0,0-3.52991-2.75A18.91725,18.91725,0,0,0,239.25,42.66c-.17993.04-.35.09-.53.14a18.7951,18.7951,0,0,0-4.63989,2.04A19.08234,19.08234,0,0,0,225.45,56.74v.01a18.75145,18.75145,0,0,0,.21,9.57l5.67011,19.8,5.7,19.95,6.13989,21.46,4.91016,17.18L257.47,177.52a17.29995,17.29995,0,0,1-33.25,9.57L206.52,125.2l-5.71-19.94L194.67,83.8l-2.26-7.92a53.547,53.547,0,0,1,5.5-42.07V33.8a54.86115,54.86115,0,0,1,4.29-6.21A53.49352,53.49352,0,0,1,229.22,9.6q2.31006-.66,4.62012-1.11A52.585,52.585,0,0,1,241.26,7.57a53.77955,53.77955,0,0,1,41.11,16.08C291.46,32.95,287.12,48.63,274.63,52.22Z"/><path fill="#f1f6f9" d="M243.16992,127.53,201.13,105.42c-.11-.06-.21-.11-.32-.16L194.67,83.8,237.03,106.07Z"/><path fill="#ca2e43" d="M282.37,23.65a53.62755,53.62755,0,0,0-11.08387-8.684A17.37789,17.37789,0,0,1,259.63,37.22a17.6288,17.6288,0,0,1-17.27-4.66,19.031,19.031,0,0,0-18.11-4.9c-.17993.04-.35.09-.53.14a18.7951,18.7951,0,0,0-4.63989,2.04A19.11773,19.11773,0,0,0,210.45,41.74v.01a18.75145,18.75145,0,0,0,.21,9.57l5.67011,19.8,5.7,19.95,2.39574,8.37353,10.20838,13.29622-4.0723,8.15926,2.51823,8.81094L242.47,162.52a17.30887,17.30887,0,0,1-19.01752,21.88623L224.22,187.09a17.29995,17.29995,0,0,0,33.25-9.57L248.08008,144.71l-4.91016-17.18L237.03,106.07l-5.7-19.95L225.66,66.32a18.75145,18.75145,0,0,1-.21-9.57v-.01a19.11773,19.11773,0,0,1,8.63007-11.9A18.7951,18.7951,0,0,1,238.72,42.8c.18005-.05.3501-.1.53-.14a19.031,19.031,0,0,1,18.11,4.9,17.6288,17.6288,0,0,0,17.27,4.66C287.12,48.63,291.46,32.95,282.37,23.65Z"/><polygon fill="#dde8ef" points="224.426 99.444 228.17 112.53 230.562 120.899 243.17 127.53 237.03 106.07 224.426 99.444"/><path fill="#fee903" d="M112.30307,103.85152l-8.50317,5.58881a6.39514,6.39514,0,0,1-7.12038-.06392L25.5202,60.75476a6.39513,6.39513,0,0,1,2.36053-11.55254L62.85,42.248a6.39515,6.39515,0,0,0,4.01565-2.63934l20.2545-29.34224a6.39513,6.39513,0,0,1,11.54117,2.41549l16.40741,84.608A6.39512,6.39512,0,0,1,112.30307,103.85152Z"/><path fill="#f4d902" d="M115.06873,97.28986l-16.40741-84.608a6.39513,6.39513,0,0,0-11.5412-2.41546L84.0542,14.708l16.01453,82.58191A6.39516,6.39516,0,0,1,97.303,103.8515l-4.43921,2.91773,3.81567,2.60717a6.3952,6.3952,0,0,0,7.12043.06391l8.50311-5.58881A6.39516,6.39516,0,0,0,115.06873,97.28986Z"/><path fill="#fee903" d="M137.24107,141.79379l-8.50318,5.5888a6.39515,6.39515,0,0,0-2.76566,6.56164l16.40741,84.608a6.39513,6.39513,0,0,0,11.54118,2.41549l20.25449-29.34224a6.3951,6.3951,0,0,1,4.01565-2.63933l34.96928-6.95423a6.39513,6.39513,0,0,0,2.36052-11.55254L144.36145,141.8577A6.39512,6.39512,0,0,0,137.24107,141.79379Z"/><path fill="#e53950" d="M149.57,169.82007A52.88858,52.88858,0,1,1,164.72,96.57,52.63107,52.63107,0,0,1,149.57,169.82007Z"/><path fill="#ca2e43" d="M164.72,96.57A52.884,52.884,0,0,0,130.9859,73.77765a52.88292,52.88292,0,0,1-47.14081,89.95526A52.89232,52.89232,0,0,0,164.72,96.57Z"/><rect width="236" height="63" x="75.392" y="157.114" fill="#f1f6f9" rx="15" transform="rotate(-18.457 193.392 188.614)"/><path fill="#dde8ef" d="M310.5459,166.90747l-10.44751-31.30255a15,15,0,0,0-18.97743-9.47957l-8.25988,2.75685,3.03361,9.08931A29.69168,29.69168,0,0,1,257.13032,175.536L83.92249,233.34521l2.76257,8.27735a14.99993,14.99993,0,0,0,18.97723,9.47963l195.404-65.21744A15,15,0,0,0,310.5459,166.90747Z"/><path fill="#e53950" d="M399.40991,489.45l-30.34985,15.01-80.461.02951L259.87,489.5c-36.23.01-53.4-8.16-64.87-42.52l-29.36617-43.05045L147.13,348.48l-4.75-14.22-9.5-28.46-4.75-14.23-14.4-43.16016L293,188.58l14.40991,43.16L312.15,245.96l9.5,28.46,4.75,14.23L343.93994,341.2a15.00958,15.00958,0,0,0,13.28,10.22L390.83008,353.54,404.11,369.38c18.11,1.14,19.53-6.31994,31.93,5.44007A74.9417,74.9417,0,0,1,458.98,420.59C464.21,465.22,444.35,489.42993,399.40991,489.45Z"/><path fill="#ca2e43" d="M250.11065,227.8878a29.405,29.405,0,0,1,37.20045,18.58042L292.40991,261.74,297.15,275.96,311.4,318.6499,328.93994,371.2a15.00958,15.00958,0,0,0,13.28,10.22L375.83008,383.54l13.27991.84a75.186,75.186,0,0,1,68.29968,92.63611A75.10559,75.10559,0,0,0,404.11,354.38l-13.27991-.84L357.22,351.41992a15.00958,15.00958,0,0,1-13.28-10.22L326.4,288.6499,312.15,245.96l-4.74011-14.22L293,188.58l-179.27,59.83,7.50348,22.48963Z"/><path fill="#f1f6f9" d="M288.933 449.9865a84.618 84.618 0 0 0-123.3023-46.05594l14.3664 43.04451a84.17324 84.17324 0 0 0 79.87577 57.52486l28.7262-.011A84.21507 84.21507 0 0 0 288.933 449.9865zM399.40991 504.45l-30.34985.01 21.77-150.91992 13.27991.84a75.10946 75.10946 0 0 1-4.70008 150.07z"/><path fill="#dde8ef" d="M389.11,384.38a75.186,75.186,0,0,1,68.29968,92.63611,75.207,75.207,0,0,0,13.85754-25.82666c.0155-.051.032-.10156.04737-.15258q.50867-1.68257.93713-3.397c.02368-.09472.04834-.18908.07178-.28393q.41289-1.67048.748-3.36841c.02442-.12341.0492-.24671.073-.37024q.323-1.67193.5697-3.3678.03077-.21131.06018-.42309.23585-1.68495.39612-3.39063c.0138-.147.02576-.29443.0387-.44165q.1496-1.71021.22314-3.43945c.00574-.1399.009-.28052.01392-.42066.0415-1.16736.05933-2.34008.046-3.51892-.00134-.11743-.00562-.23547-.00745-.35315-.01928-1.20739-.06323-2.41967-.14111-3.63745-.00488-.07446-.012-.14917-.01709-.22363-.08459-1.2655-.19727-2.53565-.34668-3.81091a75.11826,75.11826,0,0,0-69.87-66.21l-13.27991-.84L386.40613,384.209Z"/><path fill="#fff" d="M246.78,42.26a18.69342,18.69342,0,0,0-7.53.4c-.17993.04-.35.09-.53.14a18.7951,18.7951,0,0,0-4.63989,2.04A19.0284,19.0284,0,0,0,228.57,49.93q-15.33-8.07-30.66-16.12V33.8a54.86115,54.86115,0,0,1,4.29-6.21A53.49352,53.49352,0,0,1,229.22,9.6q2.31006-.66,4.62012-1.11A52.585,52.585,0,0,1,241.26,7.57l.01.00995Z"/><path fill="#dde8ef" d="M228.57,49.93c.295-.40545.61651-.79071.94189-1.17254.07654-.09.14331-.18732.22156-.27588.30243-.34217.63055-.662.95746-.98255.12158-.119.2312-.24859.356-.3645A19.05066,19.05066,0,0,1,238.72,42.8c.18005-.05.3501-.1.53-.14a18.7705,18.7705,0,0,1,3.84448-.58624c.0409-.002.0813.00171.12219,0,.587-.02429,1.17225-.02637,1.75306.00433.35485.01831.70385.068,1.05529.10608.25135.02765.50562.03821.755.07587l-1.12927-7.10785A18.87607,18.87607,0,0,1,242.36,32.56a19.031,19.031,0,0,0-18.11-4.9c-.17993.04-.35.09-.53.14a18.7951,18.7951,0,0,0-4.63989,2.04,19.08814,19.08814,0,0,0-8.29358,10.74Q219.67829,45.2536,228.57,49.93Z"/><path fill="#282828" d="M481.4258,419.71094a82.57053,82.57053,0,0,0-76.84472-72.8252l-46.88575-2.959a7.46907,7.46907,0,0,1-6.6416-5.10938L302.49026,193.31152l.94873-.3164a22.52668,22.52668,0,0,0,14.21923-28.46582L307.211,133.22559a22.52654,22.52654,0,0,0-28.46631-14.21875l-27.582,9.206L232.86526,64.24805a11.53949,11.53949,0,0,1,19.21533-11.3584,25.21265,25.21265,0,0,0,24.62549,6.5332,24.685,24.685,0,0,0,17.17236-17.57617A24.34511,24.34511,0,0,0,287.73,18.40625,61.037,61.037,0,0,0,240.955.08447c-.0658.00293-.13172.00733-.19764.01172a61.07626,61.07626,0,0,0-49.20745,29.74512c-.09613.15478-.1933.30859-.27936.47217l-.00885.019A60.85737,60.85737,0,0,0,184.52486,75.335a7.50267,7.50267,0,0,0,.20154.77881c.15247.60107.2948,1.20312.46649,1.80322L203.86056,144l-30.06934,10.03613A60.31675,60.31675,0,0,0,133.55849,66.6875a7.42324,7.42324,0,0,0-.80847-.21777,7.53642,7.53642,0,0,0-.82355-.12012,60.75757,60.75757,0,0,0-15.40735-.96973L106.02053,11.24512A13.89181,13.89181,0,0,0,80.94582,6.00586l-19.9956,28.9707L26.41067,41.84082a13.89282,13.89282,0,0,0-5.12452,25.09766L66.81106,98.05127a60.27121,60.27121,0,0,0,28.22149,82.27148l-11.69122,3.90186A22.49909,22.49909,0,0,0,69.1216,212.69043l10.44727,31.30176a22.45673,22.45673,0,0,0,28.46631,14.21972l.94812-.3164,28.65063,85.84277.00086.00293.00116.00293,20.88623,62.5791.0188.05664,14.3399,42.96485a91.55268,91.55268,0,0,0,86.958,62.65136h.03515l28.70826-.01123.01538.00147.0166-.00147,80.43677-.03076.01391.001.02246-.001,30.32227-.01172a82.60931,82.60931,0,0,0,82.01611-92.23144ZM277.00539,28.89258a9.35119,9.35119,0,0,1,2.37061,9.124,9.81321,9.81321,0,0,1-6.81836,6.99219,10.081,10.081,0,0,1-9.92432-2.7793A26.48938,26.48938,0,0,0,253.4269,36.311l-3.31677-20.89893A46.08528,46.08528,0,0,1,277.00539,28.89258ZM231.294,16.80371c1.23-.354,2.468-.63769,3.70874-.88623l3.06445,19.30908c-.47656.1084-.95252.22217-1.42554.3584a26.4083,26.4083,0,0,0-9.58795,5.06934l-18.06226-9.49707A45.98336,45.98336,0,0,1,231.294,16.80371ZM201.20113,44.00879l17.44525,9.17285a26.32252,26.32252,0,0,0-.203,15.19141l3.6944,12.915-23.636-12.42774A45.80663,45.80663,0,0,1,201.20113,44.00879Zm2.59455,44.58252L227.844,101.23584l6.137,21.45459-24.13806-12.69189Zm23.56488,47.56543-9.2555,3.08935-2.6394-9.34375ZM136.9244,83.31787a45.35309,45.35309,0,0,1,8.67114,80.12891l-22.42157,7.4834c-1.465.08105-2.923.08056-4.37347.02343ZM31.92287,56.03906l32.41406-6.44238a13.89231,13.89231,0,0,0,8.70362-5.73145L91.7969,16.69043l9.9909,51.51562A60.14448,60.14448,0,0,0,75.24856,85.64844ZM82.58449,150.5459a45.35669,45.35669,0,0,1,39.65058-70.26611l-18.12043,87.61914A45.41544,45.41544,0,0,1,82.58449,150.5459Zm52.85889,139.24951-12.23175-36.64893,127.73175-42.63086a7.50006,7.50006,0,0,0-4.749-14.22851L103.28615,243.9834a7.49944,7.49944,0,0,1-9.48877-4.73926L83.35012,207.94141a7.49892,7.49892,0,0,1,4.73974-9.48829l195.40381-65.21777a7.51212,7.51212,0,0,1,9.48877,4.73926l10.44727,31.30273A7.50973,7.50973,0,0,1,298.69,178.7666l-8.0542,2.688-.00879.00244-.00854.00342-19.364,6.4624a7.50007,7.50007,0,0,0,4.749,14.22852l12.25854-4.09131,12.23182,36.64941c-8.83069,4.8086-12.93958,11.56739-16.36731,17.20557-3.83838,6.31445-6.61231,10.87695-15.21094,13.74707-8.59766,2.87012-13.55567.88769-20.41846-1.85547-7.53955-3.01465-16.92285-6.76562-30.73535-2.15625-13.811,4.61035-19.05957,13.24512-23.27686,20.18359-3.83789,6.31446-6.61084,10.877-15.207,13.7461-8.59814,2.87012-13.55517.88672-20.416-1.85645C152.73556,291.27393,145.39168,288.33643,135.44338,289.79541Zm4.87451,14.605c4.58991-.09424,8.352,1.40137,12.97461,3.251,4.99365,1.99707,10.79492,4.31738,18.15772,4.3164a39.40425,39.40425,0,0,0,12.57617-2.15918c13.811-4.61035,19.05908-13.24511,23.27637-20.18359,3.83789-6.31445,6.61083-10.877,15.208-13.74609s13.55518-.88575,20.418,1.85547c7.53955,3.01562,16.92334,6.7666,30.73584,2.15624,13.8125-4.60937,19.06152-13.24511,23.27979-20.18359,2.58642-4.25488,4.69629-7.71094,8.42382-10.39307l9.3722,28.08106c-8.83069,4.80859-12.93958,11.56738-16.36731,17.20557-3.83838,6.31445-6.61231,10.87695-15.21094,13.74707-8.59814,2.87109-13.55615.88769-20.418-1.85547-7.54053-3.0127-16.92529-6.76563-30.73584-2.15625-13.811,4.61035-19.05957,13.24511-23.27685,20.18359-3.83789,6.31445-6.61036,10.876-15.20752,13.74512-8.59815,2.87012-13.55469.88672-20.416-1.85645C166.98171,333.96,159.63851,331.022,149.69,332.481ZM283.06154,496.9873l-23.19336.00879h-.02929a76.57648,76.57648,0,0,1-72.72949-52.39941l-12.36225-37.03955a77.06966,77.06966,0,0,1,107.06977,44.79932A76.2639,76.2639,0,0,1,283.06154,496.9873Zm166.83985-22.72656a67.66756,67.66756,0,0,1-50.49756,22.68164l-21.6875.0083,4.63476-32.12158a7.50024,7.50024,0,0,0-14.84667-2.14258l-4.94483,34.27-64.03369.02491a92.09789,92.09789,0,0,0-119.01074-107.583,92.12825,92.12825,0,0,0-9.559,3.80371L154.56392,347.084c4.59034-.09423,8.35267,1.40332,12.97516,3.25293,4.99366,1.9961,10.79444,4.31641,18.15674,4.31641a39.411,39.411,0,0,0,12.57715-2.16016c13.811-4.60937,19.05908-13.24414,23.27637-20.18261,3.83789-6.31446,6.61084-10.877,15.208-13.7461,8.59961-2.87011,13.55713-.88574,20.418,1.85547,7.53907,3.0127,16.92237,6.76465,30.73584,2.15625,13.8125-4.60937,19.06153-13.24512,23.27979-20.18359,2.58642-4.25488,4.69629-7.71094,8.42383-10.39307l17.21045,51.56592a22.40818,22.40818,0,0,0,19.92578,15.332l25.497,1.60938-11.14881,77.26757a7.50024,7.50024,0,1,0,14.84668,2.14258l11.32129-78.4624,6.36914.40186a67.6102,67.6102,0,0,1,46.26514,112.40429Z"/></svg>